<?xml version="1.0" encoding="UTF-8"?>
<svg version="1.1" xmlns="http://www.w3.org/2000/svg" width="438" height="440">
<path d="M0 0 C144.54 0 289.08 0 438 0 C438 145.2 438 290.4 438 440 C293.46 440 148.92 440 0 440 C0 294.8 0 149.6 0 0 Z " fill="#2E2E2E" transform="translate(0,0)"/>
<path d="M0 0 C20.46 0 40.92 0 62 0 C62.495 0.495 62.495 0.495 63 1 C64.51566447 1.29840567 66.03794783 1.56345102 67.5625 1.8125 C76.80989475 3.63833504 83.66284778 7.98429994 90 15 C97.62899561 26.41509765 98.51469982 39.00429521 98.44604492 52.29614258 C98.43754964 54.79788026 98.46635728 57.29731539 98.49804688 59.79882812 C98.55749314 73.49272455 97.07088535 88.77360627 86.97265625 99.06640625 C82.04433638 103.47783181 82.04433638 103.47783181 79 105 C79 105.99 79 106.98 79 108 C80.97133986 109.37535339 82.97681922 110.70211044 85 112 C93.69507409 119.63469921 97.02213839 128.63212988 98 140 C98.16872657 144.34571317 98.20784277 148.69048106 98.24609375 153.0390625 C98.27901051 155.58333705 98.3122225 158.1276078 98.34570312 160.671875 C98.39320584 164.65914927 98.43815922 168.64642053 98.47680664 172.63378906 C98.51651601 176.49820003 98.56803545 180.36231498 98.62109375 184.2265625 C98.6295079 185.41730377 98.63792206 186.60804504 98.64659119 187.83486938 C98.66323318 188.94977753 98.67987518 190.06468567 98.69702148 191.21337891 C98.71248268 192.67609726 98.71248268 192.67609726 98.72825623 194.16836548 C98.90092167 197.08370267 98.90092167 197.08370267 100.01893616 200.04916382 C101 203 101 203 101 208 C90.11 208 79.22 208 68 208 C64.62613198 195.62915058 64.62613198 195.62915058 64.63110352 190.4621582 C64.62422012 189.30758621 64.61733673 188.15301422 64.61024475 186.9634552 C64.61640305 185.7547728 64.62256134 184.54609039 64.62890625 183.30078125 C64.61153589 180.6842434 64.5939514 178.06770697 64.57617188 175.45117188 C64.56308894 171.36970815 64.56250897 167.28826714 64.56420898 163.20678711 C64.56427016 159.23793473 64.5332976 155.26952434 64.50390625 151.30078125 C64.51618004 149.47864861 64.51618004 149.47864861 64.52870178 147.6197052 C64.46729442 140.61276423 63.84656001 135.92512238 60 130 C51.60360998 123.17793311 44.53078495 124.67828147 33 124 C33 151.72 33 179.44 33 208 C22.11 208 11.22 208 0 208 C0 139.36 0 70.72 0 0 Z " fill="#FCFCFC" transform="translate(110,101)"/>
<path d="M0 0 C10.89 0 21.78 0 33 0 C33.33 28.71 33.66 57.42 34 87 C36.31 82.05 38.62 77.1 41 72 C43.20084651 67.43363557 45.40824768 62.87109486 47.625 58.3125 C52.49604602 48.27428211 57.2610021 38.19274928 61.9375 28.0625 C69.01714239 12.75059233 69.01714239 12.75059233 72.1875 6.3125 C72.69667969 5.27738281 73.20585937 4.24226563 73.73046875 3.17578125 C75 1 75 1 77 0 C79.32416296 -0.08586809 81.65083307 -0.10711043 83.9765625 -0.09765625 C85.00443375 -0.09553383 85.00443375 -0.09553383 86.05307007 -0.09336853 C88.24375761 -0.08776675 90.4343433 -0.07521406 92.625 -0.0625 C94.10937352 -0.05748522 95.59374865 -0.05292228 97.078125 -0.04882812 C100.71878315 -0.03779677 104.35938164 -0.02053099 108 0 C106.42274577 5.3086903 104.09665661 10.04830475 101.59765625 14.96484375 C101.16390182 15.82678848 100.7301474 16.68873322 100.2832489 17.57679749 C99.35784475 19.41523157 98.43073939 21.25281015 97.5020752 23.08959961 C95.0927109 27.85602622 92.69643902 32.62901679 90.30078125 37.40234375 C89.83300262 38.33396332 89.365224 39.26558289 88.88327026 40.22543335 C84.99153172 47.98875585 81.19835658 55.79316806 77.50292969 63.65209961 C75.52456075 67.8518873 73.49696014 72.00961156 71.34765625 76.125 C70.9206543 76.94871094 70.49365234 77.77242188 70.05371094 78.62109375 C69.26085065 80.14069066 68.45658808 81.65442824 67.63769531 83.16015625 C65.2974948 87.65438036 64.2538 90.83481422 65 96 C66.44337182 100.427182 68.21815244 104.69989135 70 109 C70.79579566 110.98588699 71.58410849 112.97465165 72.37239075 114.96353149 C73.50443575 117.81592472 74.64729917 120.66393828 75.78982544 123.512146 C76.70895811 125.80349389 77.62694843 128.09529673 78.54467773 130.38720703 C80.8753841 136.20707467 83.20823411 142.02608206 85.54199219 147.84472656 C94.47499827 170.11883602 94.47499827 170.11883602 97.640625 178.46875 C98.83897148 181.58169603 100.0631776 184.68220213 101.296875 187.78125 C101.70993896 188.8232959 102.12300293 189.8653418 102.54858398 190.93896484 C103.37995742 193.03466184 104.21529826 195.12879004 105.05493164 197.22119141 C105.43512451 198.18202637 105.81531738 199.14286133 106.20703125 200.1328125 C106.5522583 200.99793457 106.89748535 201.86305664 107.25317383 202.75439453 C108 205 108 205 108 208 C97.11 208 86.22 208 75 208 C68.31884058 193.52415459 68.31884058 193.52415459 66.59375 187.87890625 C63.65257619 178.72767415 60.07770966 169.8552726 56.5 160.9375 C52.13080549 150.02314423 47.84808532 139.11078047 44 128 C43.34 128 42.68 128 42 128 C31.1271293 141.35115458 32.85856065 157.9224539 32.98712158 174.16149902 C33.01256963 178.65892949 32.9780693 183.15627796 32.95399475 187.65366364 C32.92420794 194.43678313 32.96903014 201.21566547 33 208 C22.11 208 11.22 208 0 208 C0 139.36 0 70.72 0 0 Z " fill="#FCFCFC" transform="translate(230,101)"/>
<path d="M0 0 C20 0 20 0 25 2 C25 2.66 25 3.32 25 4 C25.598125 4.20625 26.19625 4.4125 26.8125 4.625 C29.94978944 6.59701051 30.62317439 8.56748551 32 12 C32.42557058 14.94990492 32.44455906 17.85890304 32.43359375 20.8359375 C32.4388356 21.67412018 32.44407745 22.51230286 32.44947815 23.37588501 C32.45587798 25.14250587 32.45458784 26.90916945 32.44604492 28.67578125 C32.43754698 31.36015818 32.46630343 34.04239603 32.49804688 36.7265625 C32.49965959 38.4505202 32.49908002 40.17448163 32.49609375 41.8984375 C32.51294472 43.08788467 32.51294472 43.08788467 32.53013611 44.30136108 C32.44656931 51.07901851 30.33998304 56.13163369 26.0625 61.375 C18.11763509 67.63459053 10.70074863 65 0 65 C0 43.55 0 22.1 0 0 Z " fill="#2F2F2F" transform="translate(143,130)"/>
<path d="M0 0 C4 2 4 2 6 5 C6.33 3.35 6.66 1.7 7 0 C7.66 0 8.32 0 9 0 C9 3.63 9 7.26 9 11 C5.60085025 9.86695008 4.94745549 8.87481525 3 6 C2.67 7.65 2.34 9.3 2 11 C1.34 11 0.68 11 0 11 C0 7.37 0 3.74 0 0 Z " fill="#253442" transform="translate(280,283)"/>
<path d="M0 0 C1.90389849 2.85584773 2.69462177 4.9311762 3.625 8.1875 C3.88539063 9.08855469 4.14578125 9.98960937 4.4140625 10.91796875 C4.60742188 11.60503906 4.80078125 12.29210937 5 13 C3.02 13 1.04 13 -1 13 C-1.02696365 11.20841511 -1.04637917 9.41671527 -1.0625 7.625 C-1.07410156 6.62726563 -1.08570313 5.62953125 -1.09765625 4.6015625 C-1 2 -1 2 0 0 Z " fill="#3A4652" transform="translate(294,281)"/>
<path d="M0 0 C0.66 0 1.32 0 2 0 C1.67 1.65 1.34 3.3 1 5 C-0.65 5 -2.3 5 -4 5 C-4 4.01 -4 3.02 -4 2 C-2.02 2.495 -2.02 2.495 0 3 C0 2.01 0 1.02 0 0 Z " fill="#26333E" transform="translate(268,289)"/>
<path d="M0 0 C0.99 0 1.98 0 3 0 C3.33 1.65 3.66 3.3 4 5 C2.02 5 0.04 5 -2 5 C-1.34 4.67 -0.68 4.34 0 4 C0 2.68 0 1.36 0 0 Z " fill="#393F43" transform="translate(295,289)"/>
</svg>
